<?xml version="1.0" standalone="no"?>
<!DOCTYPE svg PUBLIC "-//W3C//DTD SVG 20010904//EN"
 "http://www.w3.org/TR/2001/REC-SVG-20010904/DTD/svg10.dtd">
<svg version="1.0" xmlns="http://www.w3.org/2000/svg"
 width="2400.000000pt" height="2400.000000pt" viewBox="0 0 2400.000000 2400.000000"
 preserveAspectRatio="xMidYMid meet">

<g transform="translate(0.000000,2400.000000) scale(0.100000,-0.100000)"
fill="#000000" stroke="none">
<path d="M13090 14956 l-795 -251 -3 -218 -2 -217 48 0 c104 0 122 -40 122
-266 0 -153 -1 -166 -17 -160 -10 4 -78 24 -153 44 -133 36 -137 36 -325 36
-158 0 -207 -4 -292 -22 -342 -74 -644 -256 -868 -523 -445 -531 -584 -1285
-363 -1973 160 -501 529 -863 945 -926 196 -30 522 29 728 132 77 39 205 124
274 181 30 25 58 44 62 41 4 -2 49 -72 99 -154 l92 -150 644 0 644 0 0 225 c0
208 -1 225 -17 225 -37 0 -121 49 -149 86 l-29 37 -3 1759 c-2 1751 -2 1759
18 1798 21 42 86 96 127 106 l23 6 0 219 c0 120 -3 219 -7 218 -5 0 -366 -114
-803 -253z m-912 -1552 c88 -29 143 -59 225 -121 l57 -44 0 -885 0 -884 -40
-44 c-60 -65 -143 -99 -245 -99 -151 0 -271 53 -402 177 -169 160 -292 402
-352 696 -93 450 -20 851 194 1065 115 116 228 163 393 164 75 1 109 -4 170
-25z"/>
<path d="M4822 14958 l3 -202 32 -7 c71 -14 117 -61 133 -134 8 -36 10 -547 8
-1776 l-3 -1725 -27 -41 c-28 -43 -112 -93 -155 -93 l-23 0 2 -222 3 -223 838
-3 837 -2 0 223 0 223 -49 13 c-55 14 -122 66 -140 108 -8 21 -11 479 -9 1790
3 1762 3 1762 24 1789 29 39 66 65 105 73 l34 7 3 202 2 202 -810 0 -810 0 2
-202z"/>
<path d="M15078 15060 c-200 -36 -394 -149 -517 -301 -210 -260 -179 -574 70
-699 252 -128 608 -39 842 210 126 133 184 276 175 430 -13 214 -179 356 -428
365 -52 2 -116 0 -142 -5z"/>
<path d="M16467 13624 c-126 -295 -225 -540 -220 -544 4 -4 84 -28 176 -54
l169 -48 61 59 c163 155 391 258 635 286 175 19 297 -17 397 -117 68 -68 98
-135 93 -201 -6 -64 -32 -120 -72 -148 -30 -21 -40 -22 -271 -23 -256 -1 -346
-11 -534 -59 -379 -96 -690 -293 -861 -545 -57 -84 -134 -248 -160 -340 -52
-188 -66 -448 -31 -615 41 -202 120 -344 276 -500 186 -186 364 -270 630 -297
290 -30 619 86 867 304 l67 59 33 -53 c19 -29 62 -99 97 -155 l63 -103 644 0
644 0 0 223 0 223 -42 11 c-52 14 -104 48 -132 86 -21 28 -21 33 -26 1065 -6
1016 -6 1039 -27 1112 -34 120 -60 183 -116 274 -258 425 -795 679 -1272 601
-145 -23 -295 -82 -390 -153 l-40 -30 -211 109 c-116 60 -213 109 -215 109 -2
0 -107 -241 -232 -536z m1241 -1284 l42 -19 0 -405 0 -405 -63 -64 c-106 -107
-213 -158 -334 -159 -61 0 -84 5 -139 31 -89 42 -189 142 -235 235 -30 61 -34
81 -37 167 -12 286 133 505 393 594 133 46 302 57 373 25z"/>
<path d="M7415 13860 c-368 -98 -680 -181 -692 -185 l-23 -5 0 -229 0 -229 46
-11 c28 -7 61 -26 87 -51 l42 -39 3 -986 c2 -960 2 -987 -17 -1030 -23 -51
-92 -102 -154 -112 l-37 -6 2 -221 3 -221 808 -3 807 -2 0 223 0 223 -42 11
c-52 14 -104 48 -132 86 -21 28 -21 33 -24 920 l-2 891 25 53 c93 189 420 262
652 144 76 -38 146 -114 162 -175 8 -32 11 -301 11 -907 0 -862 0 -863 -21
-907 -25 -51 -92 -99 -152 -109 l-37 -6 2 -221 3 -221 790 0 790 0 3 221 2
221 -37 6 c-60 10 -127 58 -152 109 l-21 44 0 1055 c0 1151 2 1110 -59 1243
-113 249 -357 447 -646 523 -88 23 -120 26 -260 26 -224 1 -340 -27 -560 -133
-140 -68 -244 -134 -372 -236 -51 -41 -94 -74 -97 -74 -3 0 -2 113 1 250 6
242 5 250 -13 249 -10 0 -320 -81 -689 -179z"/>
<path d="M14868 13856 l-708 -181 0 -231 0 -232 43 -10 c23 -6 61 -27 82 -45
l40 -35 0 -1010 c0 -1010 0 -1011 -21 -1039 -28 -38 -80 -72 -131 -86 l-43
-11 0 -223 0 -223 838 2 837 3 3 221 2 221 -37 6 c-57 9 -129 59 -153 106 -20
40 -20 49 -20 1496 0 1158 -3 1455 -12 1454 -7 -1 -331 -83 -720 -183z"/>
<path d="M357 9913 c-4 -3 -7 -28 -7 -55 l0 -48 2220 0 2220 0 0 -510 0 -510
7190 0 7190 0 0 510 0 510 2241 0 2240 0 -3 53 -3 52 -11641 3 c-6402 1
-11644 -1 -11647 -5z"/>
</g>
</svg>
