<?xml version="1.0" standalone="no"?>
<!DOCTYPE svg PUBLIC "-//W3C//DTD SVG 20010904//EN"
 "http://www.w3.org/TR/2001/REC-SVG-20010904/DTD/svg10.dtd">
<svg version="1.0" xmlns="http://www.w3.org/2000/svg"
 width="262.000000pt" height="150.000000pt" viewBox="0 0 262.000000 150.000000"
 preserveAspectRatio="xMidYMid meet">
<metadata>
Created by potrace 1.16, written by Peter Selinger 2001-2019
</metadata>
<g transform="translate(0.000000,150.000000) scale(0.100000,-0.100000)"
fill="#000000" stroke="none">
<path d="M0 750 l0 -750 1310 0 1310 0 0 750 0 750 -1310 0 -1310 0 0 -750z
m1101 113 c-2 -127 0 -143 16 -152 15 -9 13 -10 -14 -11 -18 0 -33 5 -33 11 0
5 -10 3 -22 -5 -31 -22 -52 -20 -85 8 -23 20 -28 32 -28 71 0 39 5 51 28 71
33 28 63 31 89 7 17 -15 18 -13 18 55 0 59 -3 72 -16 72 -8 0 -13 4 -10 8 2 4
17 8 31 7 l27 0 -1 -142z m189 71 c0 -68 9 -90 25 -64 12 20 57 10 86 -19 21
-22 29 -39 29 -66 0 -66 -85 -123 -120 -80 -10 12 -15 13 -24 3 -8 -9 -31 -11
-81 -7 -38 3 -64 6 -57 7 15 2 17 152 1 152 -5 0 -7 5 -4 10 3 6 17 10 31 10
24 0 24 -2 24 -85 l0 -85 30 0 30 0 0 140 c0 120 -2 140 -16 140 -26 0 -8 15
20 16 26 2 26 1 26 -72z m880 -74 l0 -150 30 0 30 0 0 75 c0 46 -4 75 -11 75
-5 0 -7 5 -4 10 3 6 17 10 31 10 24 0 24 -2 24 -84 0 -58 4 -86 13 -89 6 -2
-23 -6 -66 -8 -59 -3 -77 -1 -77 9 0 10 -5 9 -22 -2 -31 -22 -52 -20 -85 8
-23 20 -28 32 -28 71 0 39 5 51 28 71 33 28 63 31 89 7 17 -15 18 -13 18 55 0
62 -3 72 -17 73 -12 1 -10 4 7 9 14 4 28 8 33 9 4 1 7 -66 7 -149z m-1275 -5
c42 -41 33 -55 -33 -55 -32 0 -61 -2 -64 -6 -9 -9 10 -76 24 -85 21 -14 35
-10 70 19 33 27 33 27 17 2 -38 -59 -126 -45 -149 24 -29 88 73 164 135 101z
m760 0 c42 -41 34 -55 -35 -55 l-60 0 0 -40 c0 -63 53 -78 100 -27 11 11 20
16 20 10 0 -17 -50 -53 -72 -53 -33 0 -75 28 -87 58 -36 87 70 172 134 107z
m215 9 c0 -14 2 -14 22 0 27 19 59 21 76 4 7 -7 12 -40 12 -80 0 -53 4 -69 18
-77 13 -8 7 -10 -28 -11 -27 0 -40 4 -32 9 9 5 12 28 10 77 -3 62 -5 69 -25
72 -32 5 -53 -33 -53 -94 0 -33 5 -54 13 -57 6 -3 -8 -5 -33 -5 -25 0 -39 2
-32 5 15 6 17 153 1 153 -5 0 -7 5 -4 10 10 16 55 12 55 -6z m551 6 c16 -9 19
-22 19 -86 0 -68 2 -75 18 -70 16 7 16 6 -1 -11 -14 -14 -21 -15 -36 -6 -14 9
-27 9 -49 1 -50 -19 -81 6 -68 55 6 26 43 47 81 47 20 0 25 5 25 24 0 30 -23
50 -49 41 -13 -4 -20 -14 -18 -27 3 -26 -21 -36 -30 -12 -14 37 62 68 108 44z"/>
</g>
</svg>
