<?xml version="1.0" standalone="no"?>
<!DOCTYPE svg PUBLIC "-//W3C//DTD SVG 20010904//EN"
 "http://www.w3.org/TR/2001/REC-SVG-20010904/DTD/svg10.dtd">
<svg version="1.0" xmlns="http://www.w3.org/2000/svg"
 width="856.000000pt" height="857.000000pt" viewBox="0 0 856.000000 857.000000"
 preserveAspectRatio="xMidYMid meet">

<g transform="translate(0.000000,857.000000) scale(0.100000,-0.100000)"
fill="#000000" stroke="none">
<path d="M3995 8527 c-10 -5 -46 -13 -79 -17 -83 -10 -329 -66 -395 -91 -191
-70 -485 -217 -561 -278 -25 -21 -61 -48 -80 -61 -59 -41 -242 -209 -303 -279
-32 -36 -83 -94 -113 -128 -111 -127 -265 -421 -354 -678 -21 -60 -52 -146
-69 -190 -17 -44 -31 -92 -31 -107 0 -27 -44 -195 -60 -233 -22 -48 -43 -146
-50 -225 -4 -47 -17 -130 -29 -185 -12 -55 -27 -131 -32 -170 -6 -38 -14 -95
-19 -125 -5 -30 -14 -102 -20 -160 -6 -58 -15 -132 -20 -165 -15 -88 -40 -375
-50 -575 -4 -96 -13 -222 -18 -280 -6 -58 -10 -195 -11 -305 0 -110 -3 -317
-7 -460 -4 -178 -2 -281 5 -325 7 -36 16 -90 21 -120 19 -113 82 -373 121
-505 40 -132 141 -347 225 -475 82 -126 258 -307 352 -360 89 -51 129 -75 142
-85 19 -15 192 -78 280 -101 73 -20 345 -26 434 -10 35 6 47 5 45 -3 -2 -6
-62 -72 -132 -146 -127 -133 -129 -135 -172 -135 -24 0 -56 5 -72 11 -38 15
-136 38 -143 34 -4 -2 -49 -13 -101 -23 -125 -26 -242 -84 -292 -146 -21 -24
-56 -77 -78 -117 l-41 -72 21 -63 c11 -35 23 -81 27 -102 6 -39 6 -39 -82
-113 -48 -41 -103 -87 -123 -103 -20 -17 -58 -51 -86 -76 -27 -25 -61 -53 -75
-63 -29 -20 -33 -16 108 -102 l93 -57 74 58 c167 131 211 164 222 164 7 0 30
-24 52 -52 49 -67 105 -119 208 -197 73 -55 226 -141 251 -141 5 0 15 -7 22
-15 10 -12 2 -26 -45 -79 l-56 -65 112 -35 c62 -20 118 -36 125 -36 6 0 43 29
80 65 38 36 73 64 79 62 17 -6 17 -66 1 -114 -9 -26 -14 -48 -11 -51 6 -7 117
-32 140 -32 19 0 20 4 13 78 -4 42 -10 89 -14 105 -16 65 46 3 84 -86 12 -26
24 -63 28 -82 7 -37 22 -45 118 -59 l38 -5 -7 37 c-10 55 -51 169 -75 208
l-22 34 50 48 c59 58 76 87 98 177 15 57 15 76 5 135 -8 42 -24 87 -42 115
-16 25 -29 51 -29 58 0 7 16 29 36 48 54 52 262 293 329 383 33 44 74 96 90
117 17 20 54 69 83 108 34 44 61 71 73 71 12 0 40 -32 86 -100 137 -202 286
-392 372 -473 68 -63 74 -73 95 -145 13 -42 26 -109 29 -148 8 -85 25 -129 78
-200 44 -59 46 -66 24 -84 -50 -41 -187 -266 -220 -360 l-15 -43 80 7 c111 9
127 17 152 73 27 62 57 105 68 98 5 -3 8 -32 7 -65 -1 -32 1 -61 5 -65 3 -4
33 -2 65 5 100 20 93 13 93 96 0 41 2 74 4 74 2 0 32 -13 67 -29 35 -16 96
-34 134 -41 69 -12 72 -11 185 25 137 44 315 112 350 134 102 63 241 220 316
357 25 46 50 84 56 84 15 0 106 -76 149 -124 l36 -40 107 69 c59 38 110 75
113 82 9 22 -51 226 -120 413 -24 65 -139 275 -205 375 -62 92 -285 314 -418
413 -237 178 -549 304 -789 319 -44 2 -82 8 -85 13 -9 15 26 281 60 454 25
125 43 161 95 192 23 13 113 100 200 194 88 93 162 170 165 170 12 -1 28 -17
53 -54 43 -64 182 -166 226 -166 15 0 22 -30 8 -36 -8 -3 -26 0 -40 5 -17 7
-44 7 -74 2 -65 -13 -103 -55 -103 -114 0 -52 27 -82 86 -98 56 -16 62 -23 57
-73 -5 -41 -2 -48 34 -87 36 -38 45 -43 96 -47 94 -8 158 46 161 136 1 47 1
47 49 63 129 43 145 149 32 219 -33 21 -38 21 -79 7 -25 -8 -47 -13 -50 -9
-11 10 -6 32 7 32 27 0 134 59 158 87 14 16 43 65 65 109 39 79 39 79 37 189
-3 137 -20 214 -81 365 -41 102 -102 224 -148 300 l-34 55 31 130 c55 239 68
354 68 627 l1 208 38 24 c52 32 96 85 117 138 19 51 16 60 -53 178 -47 81 -68
86 -159 40 -34 -18 -67 -29 -73 -25 -7 4 -23 31 -37 59 -92 195 -264 368 -468
469 -166 83 -308 117 -487 117 -135 0 -328 68 -465 161 -62 43 -166 171 -208
254 -59 120 -65 191 -65 756 0 293 4 498 10 513 12 31 26 32 159 10 108 -18
194 -45 349 -109 176 -72 475 -242 601 -342 40 -32 110 -85 156 -118 45 -33
123 -96 174 -140 110 -95 120 -102 132 -84 11 18 4 40 -33 103 -103 174 -318
398 -558 582 -116 89 -176 126 -300 188 -102 50 -175 80 -212 86 -136 22 -268
76 -438 181 -81 50 -95 52 -153 25 -29 -14 -65 -28 -82 -32 -16 -4 -52 -18
-79 -32 -80 -39 -287 -113 -343 -122 -76 -12 -383 -166 -487 -245 -46 -34 -92
-68 -103 -73 -47 -25 -213 -169 -273 -237 -139 -156 -177 -201 -190 -225 -7
-14 -27 -43 -45 -65 -87 -110 -262 -439 -330 -620 -49 -132 -62 -155 -84 -155
-27 0 -30 17 -14 80 8 30 21 80 28 110 7 30 18 69 24 85 5 17 18 57 27 90 36
125 210 488 279 580 24 33 66 92 92 130 84 125 392 421 538 516 205 134 238
153 330 190 44 17 89 37 100 45 38 25 220 86 295 99 41 7 109 20 150 28 103
21 293 41 316 33 11 -3 84 -10 162 -16 149 -10 180 -16 377 -82 449 -151 821
-460 1148 -953 111 -168 281 -527 353 -743 111 -336 160 -572 194 -942 6 -63
16 -137 21 -165 6 -30 8 -161 5 -330 -17 -966 -25 -1367 -31 -1415 -3 -30 -8
-120 -10 -200 -8 -287 -12 -356 -25 -379 -7 -14 -10 -39 -6 -61 6 -41 -8 -213
-24 -294 -13 -60 3 -91 52 -100 62 -11 290 -27 309 -21 24 8 24 32 -2 120 -11
39 -24 108 -30 155 -5 47 -15 101 -21 120 -7 22 -12 259 -15 658 -5 569 -4
624 11 641 15 17 17 68 16 517 0 498 -6 640 -45 1069 -17 185 -36 310 -67 450
-64 291 -81 359 -109 445 -62 190 -166 432 -236 551 -160 270 -252 383 -454
559 -150 131 -213 170 -459 290 -80 39 -161 79 -180 89 -32 17 -250 82 -345
102 -22 5 -65 15 -95 24 -30 8 -85 15 -122 15 -37 0 -79 5 -95 12 -36 15 -612
20 -638 5z m195 -687 c8 -15 10 -190 8 -583 -4 -609 -1 -570 -61 -727 -87
-230 -339 -431 -581 -466 -198 -28 -344 -88 -473 -192 -98 -80 -209 -253 -195
-305 l7 -27 78 70 c140 126 362 214 604 239 114 12 201 42 286 98 137 91 269
249 340 406 25 56 49 101 54 101 4 -1 28 -42 52 -90 57 -114 156 -215 291
-296 146 -88 286 -128 448 -128 86 0 255 -33 335 -66 33 -13 68 -24 76 -24 27
0 171 -102 253 -179 125 -117 190 -219 256 -406 l36 -100 -1 -215 c-2 -397
-70 -710 -227 -1043 -104 -220 -143 -289 -232 -407 -97 -128 -301 -342 -323
-338 -18 4 -28 41 -30 106 -1 57 -39 202 -100 389 -73 222 -78 233 -351 798
-88 182 -236 499 -269 575 -42 96 -93 168 -127 176 -16 4 -39 0 -61 -10 -25
-12 -39 -13 -53 -6 -35 19 -79 12 -106 -17 -31 -33 -83 -141 -165 -338 -54
-132 -68 -156 -111 -196 -38 -36 -65 -51 -121 -68 -94 -28 -198 -28 -271 -1
-110 42 -249 153 -352 282 -40 50 -61 68 -79 68 -53 0 -41 -71 38 -224 41 -80
67 -116 136 -186 121 -123 167 -144 327 -148 84 -3 138 1 177 11 31 8 59 12
61 8 5 -7 -46 -136 -169 -426 -99 -234 -120 -286 -182 -435 -62 -153 -80 -190
-91 -190 -33 2 -187 191 -260 320 -85 149 -112 206 -159 335 -57 153 -64 178
-106 365 -56 247 -66 300 -78 390 -10 81 -29 130 -49 130 -4 0 -16 -7 -24 -16
-13 -12 -16 -38 -16 -117 1 -133 23 -375 46 -506 l19 -103 -45 -36 c-125 -100
-202 -211 -244 -352 -26 -85 -31 -222 -12 -303 32 -136 81 -205 202 -282 56
-36 67 -62 23 -57 -120 13 -124 13 -157 -8 -40 -25 -64 -77 -56 -120 8 -38 53
-77 99 -86 42 -8 50 -18 46 -60 -1 -17 5 -48 13 -68 21 -50 68 -69 158 -64 61
3 72 7 100 35 27 28 32 39 33 89 l2 58 49 11 c62 14 70 19 90 57 21 40 13 102
-17 134 -37 40 -103 51 -163 28 -9 -3 -16 -2 -16 4 0 5 20 17 44 26 56 21 124
93 160 170 l28 58 25 -23 c14 -13 70 -77 124 -141 l99 -117 0 -76 c0 -142 29
-355 82 -590 67 -305 72 -335 54 -353 -38 -38 -404 -66 -540 -41 -85 15 -202
65 -274 116 -145 103 -245 217 -365 418 -87 147 -141 285 -194 495 -70 282
-73 325 -73 1145 0 729 4 812 40 1030 29 171 79 329 98 310 4 -3 10 -59 13
-123 8 -137 23 -263 44 -347 8 -33 23 -108 34 -166 41 -220 201 -595 262 -614
29 -10 59 15 98 79 l34 57 -61 128 c-85 177 -150 369 -171 506 -7 39 -19 113
-28 165 -14 76 -17 162 -18 420 0 360 12 468 76 705 57 209 183 483 301 657
252 370 544 604 953 764 136 53 213 72 335 83 169 15 198 14 210 -9z m182
-2957 c31 -49 101 -193 178 -369 34 -77 74 -166 89 -199 15 -33 43 -98 61
-145 18 -47 41 -102 52 -123 31 -60 15 -67 -19 -7 -39 69 -175 330 -224 430
-48 98 -87 148 -135 175 l-39 22 -3 126 c-1 71 1 127 6 127 5 0 20 -17 34 -37z
m-182 -92 c0 -126 -8 -151 -49 -151 -35 0 -76 -64 -110 -168 -10 -31 -47 -127
-80 -212 -56 -141 -90 -237 -141 -405 -29 -92 -45 -210 -34 -242 19 -55 118
-51 130 6 3 14 19 78 35 141 17 63 37 147 45 185 9 39 34 124 56 190 22 66 52
154 66 195 29 88 48 116 69 98 11 -9 13 -179 10 -1072 -3 -584 -5 -1065 -5
-1071 0 -5 3 -84 7 -175 4 -91 4 -195 0 -231 -11 -92 -97 -271 -175 -366 -32
-39 -84 -104 -114 -143 -79 -103 -502 -517 -536 -526 -15 -4 -48 -2 -73 5 -70
17 -210 91 -271 142 -68 57 -126 149 -111 176 5 10 166 173 356 363 191 190
353 359 361 377 12 27 11 43 -7 125 -11 51 -24 118 -29 148 -5 30 -16 87 -25
125 -87 410 -115 581 -115 703 0 187 48 376 148 582 34 69 73 154 88 190 54
132 103 249 169 395 37 83 76 175 88 205 11 30 30 71 42 90 12 19 36 78 55
130 18 52 41 110 52 129 17 30 55 117 71 164 4 9 11 17 17 17 6 0 10 -44 10
-119z m208 -378 c10 -16 59 -104 107 -198 49 -93 100 -192 115 -220 15 -27 51
-95 80 -150 30 -55 66 -118 80 -140 53 -78 163 -311 192 -405 39 -126 46 -259
24 -434 -9 -71 -21 -136 -25 -145 -5 -9 -11 -52 -15 -96 -4 -44 -14 -123 -22
-175 -25 -152 -28 -281 -9 -379 42 -216 132 -344 290 -416 64 -30 463 -296
523 -348 59 -53 6 -184 -127 -317 -75 -74 -101 -92 -203 -142 -64 -32 -123
-58 -131 -58 -14 0 -67 42 -280 220 -62 52 -223 214 -303 305 -104 118 -197
258 -268 403 -104 210 -97 112 -94 1317 2 679 6 1050 13 1050 5 0 28 -45 51
-100 37 -92 54 -151 99 -349 9 -38 20 -76 26 -83 14 -16 91 -17 107 -1 7 7 12
32 12 58 0 62 -37 246 -54 273 -8 12 -44 92 -80 177 -36 85 -71 163 -76 173
-20 35 -70 168 -70 187 0 28 15 25 38 -7z m1636 -475 c18 -29 62 -140 81 -204
18 -63 35 -189 37 -284 3 -133 -44 -183 -168 -178 -65 3 -75 6 -118 41 -47 39
-106 116 -106 138 0 7 11 26 24 43 52 70 162 306 197 424 14 47 31 53 53 20z
m-3227 -134 c29 -71 69 -159 88 -196 34 -64 35 -69 24 -115 -19 -78 -32 -106
-67 -145 -33 -36 -37 -38 -99 -38 -98 0 -135 27 -180 135 -48 114 -37 225 36
360 36 68 110 140 134 132 6 -2 34 -61 64 -133z m-227 -809 c0 -18 -15 -26
-34 -19 -19 7 -21 31 -3 37 18 6 37 -3 37 -18z m289 16 c19 -12 6 -41 -19 -41
-25 0 -38 29 -19 41 8 5 16 9 19 9 3 0 11 -4 19 -9z m3307 -52 c8 -14 -14 -29
-33 -22 -7 3 -13 11 -13 19 0 17 36 19 46 3z m-326 -9 c0 -5 -7 -10 -15 -10
-8 0 -15 5 -15 10 0 6 7 10 15 10 8 0 15 -4 15 -10z m-3122 -99 c23 -14 10
-46 -18 -46 -16 0 -26 6 -28 19 -3 16 12 36 28 36 3 0 11 -4 18 -9z m3262 -71
c0 -5 -7 -10 -15 -10 -8 0 -15 5 -15 10 0 6 7 10 15 10 8 0 15 -4 15 -10z
m-620 -684 c100 -21 275 -94 354 -147 109 -73 284 -227 356 -314 179 -215 320
-457 426 -729 61 -159 41 -168 -64 -28 -22 30 -50 61 -62 69 -24 17 -55 80
-90 186 -40 123 -154 269 -247 315 -75 37 -130 45 -190 26 -66 -21 -80 -16
-198 75 -117 90 -271 202 -340 246 -95 62 -185 144 -208 191 -19 41 -19 44 -3
69 9 14 31 35 49 46 36 22 93 21 217 -5z m-2637 -671 c-1 -11 -7 -52 -13 -92
-9 -62 -9 -76 5 -97 9 -13 24 -47 34 -74 31 -83 109 -205 180 -278 48 -51 93
-85 167 -126 153 -85 190 -94 327 -80 61 6 124 14 139 17 23 6 28 4 33 -18 8
-32 -21 -101 -64 -149 -41 -47 -140 -82 -209 -74 -97 11 -158 22 -179 34 -12
7 -30 12 -41 12 -10 0 -39 11 -63 23 -24 13 -56 27 -70 30 -58 15 -241 173
-336 292 -54 68 -96 145 -128 237 -23 64 -27 90 -23 152 3 65 7 79 34 113 44
53 130 103 174 100 28 -2 35 -6 33 -22z m3236 -180 c8 -22 9 -41 3 -52 -5 -10
-12 -49 -14 -88 -4 -47 -14 -88 -32 -125 -36 -75 -122 -187 -157 -206 -35 -18
-58 -59 -42 -75 15 -15 70 10 163 76 122 86 171 151 214 285 12 36 26 64 31
64 36 -3 59 -139 31 -180 -8 -11 -14 -40 -14 -64 1 -45 -32 -125 -86 -214 -37
-60 -155 -168 -240 -220 -121 -73 -178 -88 -333 -88 -150 -1 -167 5 -256 91
-51 49 -113 138 -104 148 4 3 23 9 44 14 21 4 61 15 88 23 28 8 76 21 107 30
32 8 85 31 118 50 34 20 65 36 70 36 5 0 51 37 102 81 119 105 214 240 255
364 15 47 30 85 33 85 3 0 12 -16 19 -35z"/>
<path d="M4179 5817 c-55 -37 -82 -84 -76 -135 8 -72 70 -122 152 -122 167 0
213 184 65 260 -51 26 -99 25 -141 -3z"/>
<path d="M5630 5299 c-115 -71 -251 -129 -432 -183 -162 -49 -198 -57 -324
-65 -121 -9 -161 -22 -183 -62 -13 -24 -12 -30 10 -74 13 -27 31 -53 41 -59
45 -27 427 37 526 88 16 8 51 23 78 34 133 50 404 275 404 335 0 23 -4 27 -27
27 -16 -1 -57 -19 -93 -41z"/>
<path d="M2940 5266 c0 -42 134 -148 305 -240 131 -71 337 -144 455 -160 114
-15 126 -12 150 34 28 55 26 94 -6 119 -33 26 -20 23 -301 80 -283 58 -340 75
-465 134 -120 58 -138 62 -138 33z"/>
<path d="M5708 4983 c-8 -10 -42 -58 -74 -108 -80 -121 -217 -263 -297 -306
-58 -31 -70 -34 -172 -37 -88 -3 -128 1 -200 18 -110 27 -157 30 -163 11 -2
-7 23 -39 57 -71 48 -46 78 -65 143 -90 78 -30 89 -32 194 -28 108 3 113 4
200 47 139 69 246 196 321 381 26 66 47 165 39 186 -7 19 -30 18 -48 -3z"/>
</g>
</svg>
